<?xml version="1.0" encoding="UTF-8"?>
<svg width="24px" height="19px" viewBox="0 0 24 19" version="1.1" xmlns="http://www.w3.org/2000/svg" xmlns:xlink="http://www.w3.org/1999/xlink">
    <!-- Generator: Sketch 52.6 (67491) - http://www.bohemiancoding.com/sketch -->
    <title>camera</title>
    <desc>Created with Sketch.</desc>
    <g id="Page-1" stroke="none" stroke-width="1" fill="none" fill-rule="evenodd">
        <g id="Notion-12-Copy-6" transform="translate(-21.000000, -301.000000)" fill="#37352F" fill-rule="nonzero">
            <g id="Nav-Bar" transform="translate(21.000000, 298.000000)">
                <path d="M7.56593662,3.92845697 C8.06967391,3.28643885 8.67218322,3 9.45248217,3 L14.0651354,3 C14.8454344,3 15.4479437,3.28643885 15.951681,3.92845697 L16.4060323,4.50133468 C16.8406292,5.06433519 17.127068,5.18286161 17.6604369,5.18286161 L21.0384399,5.18286161 C22.460757,5.18286161 23.5176176,6.2100906 23.5176176,7.61265326 L23.5176176,18.7146281 C23.5176176,20.1171908 22.460757,21.154297 21.0384399,21.154297 L2.47917766,21.154297 C1.0469834,21.154297 -3.80140364e-13,20.1171908 -3.80140364e-13,18.7146281 L-3.80140364e-13,7.61265326 C-3.80140364e-13,6.2100906 1.0469834,5.18286161 2.47917766,5.18286161 L5.8571807,5.18286161 C6.3905496,5.18286161 6.67698845,5.06433519 7.10170813,4.51121188 L7.56593662,3.92845697 Z M15.0331012,5.24212482 C14.5688727,4.63961551 14.1737847,4.49145748 13.6107841,4.49145748 L9.90683346,4.49145748 C9.34383295,4.49145748 8.94874488,4.63961551 8.47463919,5.24212482 L8.0202879,5.82487973 C7.53630501,6.43726624 7.14121694,6.66444189 6.36091799,6.66444189 L2.94340615,6.66444189 C2.1433528,6.66444189 1.5902295,7.19781079 1.5902295,7.97810973 L1.5902295,18.3491717 C1.5902295,19.1294706 2.1433528,19.6628395 2.94340615,19.6628395 L20.5742115,19.6628395 C21.3742648,19.6628395 21.9273881,19.1294706 21.9273881,18.3491717 L21.9273881,7.97810973 C21.9273881,7.19781079 21.3742648,6.66444189 20.5742115,6.66444189 L17.1566996,6.66444189 C16.3764007,6.66444189 15.9813126,6.43726624 15.4973297,5.82487973 L15.0331012,5.24212482 Z M11.7538702,7.33609161 C14.6775219,7.33609161 17.0184188,9.67698845 17.0184188,12.6105174 C17.0184188,15.5440463 14.6775219,17.875066 11.7538702,17.875066 C8.84009566,17.875066 6.49919882,15.5440463 6.49919882,12.6105174 C6.49919882,9.67698845 8.84009566,7.33609161 11.7538702,7.33609161 Z M11.7538702,8.82754909 C9.66978061,8.82754909 7.9906563,10.5066734 7.9906563,12.6105174 C7.9906563,14.7143614 9.66978061,16.3836085 11.7538702,16.3836085 C13.847837,16.3836085 15.5269613,14.7143614 15.5269613,12.6105174 C15.5269613,10.5066734 13.847837,8.82754909 11.7538702,8.82754909 Z" id="camera"></path>
            </g>
        </g>
    </g>
</svg>