<?xml version="1.0" encoding="UTF-8"?>
<svg width="20px" height="16px" viewBox="0 0 20 16" version="1.1" xmlns="http://www.w3.org/2000/svg" xmlns:xlink="http://www.w3.org/1999/xlink">
    <!-- Generator: Sketch 52.6 (67491) - http://www.bohemiancoding.com/sketch -->
    <title>Camera</title>
    <desc>Created with Sketch.</desc>
    <g id="Page-1" stroke="none" stroke-width="1" fill="none" fill-rule="evenodd">
        <g id="Add-Cover-Image-Copy" transform="translate(-21.000000, -297.000000)" fill="#37352F" fill-rule="nonzero">
            <g id="Nav-Bar" transform="translate(21.000000, 295.000000)">
                <path d="M6.35839844,3.30322266 C6.78173828,2.76367188 7.28808594,2.52294922 7.94384766,2.52294922 L11.8203125,2.52294922 C12.4760742,2.52294922 12.9824219,2.76367188 13.4057617,3.30322266 L13.7875977,3.78466797 C14.152832,4.2578125 14.3935547,4.35742188 14.8417969,4.35742188 L17.6806641,4.35742188 C18.8759766,4.35742188 19.7641602,5.22070312 19.7641602,6.39941406 L19.7641602,15.7294922 C19.7641602,16.9082031 18.8759766,17.7797852 17.6806641,17.7797852 L2.08349609,17.7797852 C0.879882812,17.7797852 0,16.9082031 0,15.7294922 L0,6.39941406 C0,5.22070312 0.879882812,4.35742188 2.08349609,4.35742188 L4.92236328,4.35742188 C5.37060547,4.35742188 5.61132812,4.2578125 5.96826172,3.79296875 L6.35839844,3.30322266 Z M12.6337891,4.40722656 C12.2436523,3.90087891 11.9116211,3.77636719 11.4384766,3.77636719 L8.32568359,3.77636719 C7.85253906,3.77636719 7.52050781,3.90087891 7.12207031,4.40722656 L6.74023438,4.89697266 C6.33349609,5.41162109 6.00146484,5.60253906 5.34570312,5.60253906 L2.47363281,5.60253906 C1.80126953,5.60253906 1.33642578,6.05078125 1.33642578,6.70654297 L1.33642578,15.4223633 C1.33642578,16.078125 1.80126953,16.5263672 2.47363281,16.5263672 L17.2905273,16.5263672 C17.9628906,16.5263672 18.4277344,16.078125 18.4277344,15.4223633 L18.4277344,6.70654297 C18.4277344,6.05078125 17.9628906,5.60253906 17.2905273,5.60253906 L14.418457,5.60253906 C13.7626953,5.60253906 13.4306641,5.41162109 13.0239258,4.89697266 L12.6337891,4.40722656 Z M9.87792969,6.16699219 C12.3349609,6.16699219 14.3022461,8.13427734 14.3022461,10.5996094 C14.3022461,13.0649414 12.3349609,15.0239258 9.87792969,15.0239258 C7.42919922,15.0239258 5.46191406,13.0649414 5.46191406,10.5996094 C5.46191406,8.13427734 7.42919922,6.16699219 9.87792969,6.16699219 Z M9.87792969,7.42041016 C8.12646484,7.42041016 6.71533203,8.83154297 6.71533203,10.5996094 C6.71533203,12.3676758 8.12646484,13.7705078 9.87792969,13.7705078 C11.6376953,13.7705078 13.0488281,12.3676758 13.0488281,10.5996094 C13.0488281,8.83154297 11.6376953,7.42041016 9.87792969,7.42041016 Z" id="Camera"></path>
            </g>
        </g>
    </g>
</svg>