<?xml version="1.0" encoding="UTF-8"?>
<svg width="18px" height="18px" viewBox="0 0 18 18" version="1.1" xmlns="http://www.w3.org/2000/svg" xmlns:xlink="http://www.w3.org/1999/xlink">
    <!-- Generator: Sketch 52.6 (67491) - http://www.bohemiancoding.com/sketch -->
    <title>Notifications</title>
    <desc>Created with Sketch.</desc>
    <g id="Page-1" stroke="none" stroke-width="1" fill="none" fill-rule="evenodd">
        <g id="Notion-Copy-4" transform="translate(-342.000000, -57.000000)" fill="#37352F">
            <path d="M351,57 C355.970403,57 360,61.0295965 360,66 C360,70.9704035 355.970403,75 351,75 C346.029596,75 342,70.9704035 342,66 C342,61.0295965 346.029596,57 351,57 Z M351,73.4347826 C355.106292,73.4347826 358.434783,70.1062921 358.434783,66 C358.434783,61.8937079 355.106292,58.5652174 351,58.5652174 C346.893708,58.5652174 343.565217,61.8937079 343.565217,66 C343.565217,70.1062921 346.893708,73.4347826 351,73.4347826 Z M355.304348,65.2173913 L355.304348,66.7826087 L350.217391,66.7826087 L350.217391,60.5217391 L351.782609,60.5217391 L351.782609,65.2173913 L355.304348,65.2173913 Z" id="Notifications"></path>
        </g>
    </g>
</svg>