<?xml version="1.0" encoding="UTF-8"?>
<svg width="18px" height="19px" viewBox="0 0 18 19" version="1.1" xmlns="http://www.w3.org/2000/svg" xmlns:xlink="http://www.w3.org/1999/xlink">
    <!-- Generator: Sketch 52.6 (67491) - http://www.bohemiancoding.com/sketch -->
    <title>search</title>
    <desc>Created with Sketch.</desc>
    <g id="Page-1" stroke="none" stroke-width="1" fill="none" fill-rule="evenodd">
        <g id="Notion-12-Copy-6" transform="translate(-336.000000, -300.000000)" fill="#37352F" fill-rule="nonzero">
            <g id="Nav-Bar" transform="translate(21.000000, 298.000000)">
                <path d="M322.151938,16.3038765 C318.208607,16.3038765 315,13.0859693 315,9.15193825 C315,5.20860689 318.208607,2 322.151938,2 C326.085969,2 329.303876,5.20860689 329.303876,9.15193825 C329.303876,10.7701922 328.755158,12.2768423 327.834428,13.4765823 L332.735691,18.3871459 C332.930997,18.5917527 333.024,18.8614617 333.024,19.140471 C333.024,19.7263905 332.596186,20.191406 331.991666,20.191406 C331.712657,20.191406 331.433647,20.0891026 331.238341,19.8844958 L326.309177,14.9553316 C325.137338,15.8016598 323.69579,16.3038765 322.151938,16.3038765 Z M322.151938,14.7600251 C325.22104,14.7600251 327.760025,12.2210405 327.760025,9.15193825 C327.760025,6.0735357 325.22104,3.54385143 322.151938,3.54385143 C319.073536,3.54385143 316.543851,6.0735357 316.543851,9.15193825 C316.543851,12.2210405 319.073536,14.7600251 322.151938,14.7600251 Z" id="search"></path>
            </g>
        </g>
    </g>
</svg>