<?xml version="1.0" encoding="UTF-8"?>
<svg width="14px" height="14px" viewBox="0 0 14 14" version="1.1" xmlns="http://www.w3.org/2000/svg" xmlns:xlink="http://www.w3.org/1999/xlink">
    <!-- Generator: Sketch 52.6 (67491) - http://www.bohemiancoding.com/sketch -->
    <title>Cover</title>
    <desc>Created with Sketch.</desc>
    <g id="Page-1" stroke="none" stroke-width="1" fill="none" fill-rule="evenodd" fill-opacity="0.298038989">
        <g id="Notion-Copy-4" transform="translate(-120.000000, -111.000000)" fill="#37352F" fill-rule="nonzero">
            <g id="Add-Bar" transform="translate(29.000000, 110.000000)">
                <g id="Add-Cover" transform="translate(91.000000, 0.000000)">
                    <path d="M0,3 C0,1.895432 0.895508,1 2,1 L12,1 C13.1045,1 14,1.895432 14,3 L14,13 C14,14.1046 13.1045,15 12,15 L2,15 C0.895508,15 0,14.1046 0,13 L0,3 Z M2,2.5 C1.72363,2.5 1.5,2.72386 1.5,3 L1.5,13 C1.5,13.2761 1.72363,13.5 2,13.5 L12,13.5 C12.2764,13.5 12.5,13.2761 12.5,13 L12.5,3 C12.5,2.72386 12.2764,2.5 12,2.5 L2,2.5 Z M4.5,8.25 L6.28564,10.75833 L8.78564,7 L12,12 L2,12 L4.5,8.25 Z" id="Cover"></path>
                </g>
            </g>
        </g>
    </g>
</svg>