<?xml version="1.0" encoding="UTF-8"?>
<svg width="16px" height="19px" viewBox="0 0 16 19" version="1.1" xmlns="http://www.w3.org/2000/svg" xmlns:xlink="http://www.w3.org/1999/xlink">
    <!-- Generator: Sketch 52.6 (67491) - http://www.bohemiancoding.com/sketch -->
    <title>remove</title>
    <desc>Created with Sketch.</desc>
    <g id="Page-1" stroke="none" stroke-width="1" fill="none" fill-rule="evenodd">
        <g id="Image-Categories" transform="translate(-96.000000, -1579.000000)" fill="#FF2943" fill-rule="nonzero">
            <g id="Group-3" transform="translate(16.000000, 1563.000000)">
                <g id="Group-Copy" transform="translate(80.000000, 15.000000)">
                    <path d="M13.7128906,17.5932617 C13.6547852,18.7802734 12.8662109,19.5439453 11.6791992,19.5439453 L4.06738281,19.5439453 C2.86376953,19.5439453 2.08349609,18.7885742 2.02539062,17.6015625 L1.45263672,5.44921875 L0.614257812,5.44921875 C0.282226562,5.44921875 0,5.16699219 0,4.82666016 C0,4.48632812 0.282226562,4.20410156 0.614257812,4.20410156 L4.22509766,4.20410156 L4.22509766,2.95898438 C4.22509766,1.76367188 5.03027344,1 6.30859375,1 L9.41308594,1 C10.6914062,1 11.4882812,1.76367188 11.4882812,2.95898438 L11.4882812,4.20410156 L15.1240234,4.20410156 C15.4643555,4.20410156 15.7382812,4.48632812 15.7382812,4.82666016 C15.7382812,5.16699219 15.4643555,5.44921875 15.1240234,5.44921875 L14.2856445,5.44921875 L13.7128906,17.5932617 Z M5.55322266,3.04199219 L5.55322266,4.20410156 L10.168457,4.20410156 L10.168457,3.04199219 C10.168457,2.56884766 9.828125,2.22851562 9.32177734,2.22851562 L6.40820312,2.22851562 C5.90185547,2.22851562 5.55322266,2.56884766 5.55322266,3.04199219 Z M4.18359375,18.2988281 L11.5463867,18.2988281 C12.0361328,18.2988281 12.3930664,17.9501953 12.4179688,17.4521484 L12.9575195,5.44921875 L2.74755859,5.44921875 L3.3203125,17.4521484 C3.34521484,17.9418945 3.71044922,18.2988281 4.18359375,18.2988281 Z M10.3344727,16.8461914 C10.0522461,16.8461914 9.84472656,16.597168 9.85302734,16.2983398 L10.1020508,7.52441406 C10.1103516,7.23388672 10.3261719,6.98486328 10.5834961,6.98486328 C10.8657227,6.98486328 11.0732422,7.22558594 11.0649414,7.53271484 L10.815918,16.3066406 C10.8076172,16.6220703 10.6083984,16.8461914 10.3344727,16.8461914 Z M5.40380859,16.8461914 C5.12988281,16.8461914 4.93066406,16.6220703 4.92236328,16.3066406 L4.67333984,7.53271484 C4.66503906,7.22558594 4.87255859,6.98486328 5.15478516,6.98486328 C5.41210938,6.98486328 5.62792969,7.23388672 5.63623047,7.52441406 L5.88525391,16.2983398 C5.89355469,16.597168 5.68603516,16.8461914 5.40380859,16.8461914 Z M8.3671875,16.3066406 C8.3671875,16.597168 8.14306641,16.8461914 7.86914062,16.8461914 C7.59521484,16.8461914 7.37109375,16.597168 7.37109375,16.3066406 L7.37109375,7.53271484 C7.37109375,7.23388672 7.59521484,6.98486328 7.86914062,6.98486328 C8.14306641,6.98486328 8.3671875,7.23388672 8.3671875,7.53271484 L8.3671875,16.3066406 Z" id="remove"></path>
                </g>
            </g>
        </g>
    </g>
</svg>