<?xml version="1.0" encoding="UTF-8"?>
<svg width="14px" height="14px" viewBox="0 0 14 14" version="1.1" xmlns="http://www.w3.org/2000/svg" xmlns:xlink="http://www.w3.org/1999/xlink">
    <!-- Generator: Sketch 52.6 (67491) - http://www.bohemiancoding.com/sketch -->
    <title>Icon</title>
    <desc>Created with Sketch.</desc>
    <g id="Page-1" stroke="none" stroke-width="1" fill="none" fill-rule="evenodd" fill-opacity="0.298038989">
        <g id="Notion-Copy-4" transform="translate(-29.000000, -111.000000)" fill="#37352F" fill-rule="nonzero">
            <g id="Add-Bar" transform="translate(29.000000, 110.000000)">
                <g id="Add-Icon">
                    <path d="M7,1 C10.8611563,1 14,4.13884372 14,8 C14,11.8611563 10.8611563,15 7,15 C3.13884372,15 0,11.8611563 0,8 C0,4.13884372 3.13884372,1 7,1 Z M7,13.4366581 C9.99199057,13.4366581 12.4366581,10.9919906 12.4366581,8 C12.4366581,5.00800943 9.99199057,2.56334192 7,2.56334192 C4.00800943,2.56334192 1.56334192,5.00800943 1.56334192,8 C1.56334192,10.9919906 4.00800943,13.4366581 7,13.4366581 Z M10.2047987,9.05080301 C10.5422471,9.31720964 10.5969989,9.79902568 10.3294688,10.1378923 C9.70072381,10.9238235 8.52090505,11.6790578 6.85314685,11.6790578 C5.18692175,11.6790578 3.92632016,10.870672 3.37623547,10.1371506 C3.10912252,9.79880749 3.16425472,9.30261766 3.50149501,9.03637533 C3.83983808,8.76926238 4.3360279,8.82439458 4.60919693,9.17117211 C4.87204485,9.56544398 5.75970971,10.1157159 6.85314685,10.1157159 C7.946584,10.1157159 8.83424886,9.56544398 9.10695636,9.15803822 C9.3865665,8.82600118 9.86551747,8.7829494 10.2047987,9.05080301 Z M4.58800147,7.32189915 C4.02083735,7.32189915 3.56105999,6.86212179 3.56105999,6.29495767 C3.56105999,5.72779356 4.02083735,5.26801619 4.58800147,5.26801619 C5.15516559,5.26801619 5.61494295,5.72779356 5.61494295,6.29495767 C5.61494295,6.86212179 5.15516559,7.32189915 4.58800147,7.32189915 Z M9.11829223,7.32189915 C8.55112812,7.32189915 8.09135075,6.86212179 8.09135075,6.29495767 C8.09135075,5.72779356 8.55112812,5.26801619 9.11829223,5.26801619 C9.68545635,5.26801619 10.1452337,5.72779356 10.1452337,6.29495767 C10.1452337,6.86212179 9.68545635,7.32189915 9.11829223,7.32189915 Z" id="Icon"></path>
                </g>
            </g>
        </g>
    </g>
</svg>