<?xml version="1.0" encoding="UTF-8"?>
<svg width="18px" height="5px" viewBox="0 0 18 5" version="1.1" xmlns="http://www.w3.org/2000/svg" xmlns:xlink="http://www.w3.org/1999/xlink">
    <!-- Generator: Sketch 52.6 (67491) - http://www.bohemiancoding.com/sketch -->
    <title>Dot dot dot</title>
    <desc>Created with Sketch.</desc>
    <g id="Page-1" stroke="none" stroke-width="1" fill="none" fill-rule="evenodd">
        <g id="Notion-Copy-4" transform="translate(-256.000000, -64.000000)" fill="#37352F">
            <g id="Dot-dot-dot" transform="translate(256.000000, 64.000000)">
                <path d="M4.15384615,2.07692308 C4.15384615,3.22397602 3.22397602,4.15384615 2.07692308,4.15384615 C0.929870135,4.15384615 1.40473471e-16,3.22397602 0,2.07692308 C-1.40473471e-16,0.929870135 0.929870135,2.10710207e-16 2.07692308,0 C2.62775733,-2.10890676e-16 3.15603084,0.218818053 3.54552947,0.608316685 C3.9350281,0.997815317 4.15384615,1.52608883 4.15384615,2.07692308 Z" id="Path"></path>
                <path d="M11.0769231,2.07692308 C11.0769231,3.22397602 10.1470529,4.15384615 9,4.15384615 C7.85294706,4.15384615 6.92307692,3.22397602 6.92307692,2.07692308 C6.92307692,0.929870135 7.85294706,2.10710207e-16 9,0 C10.1470529,7.02367357e-17 11.0769231,0.929870135 11.0769231,2.07692308 Z" id="Path"></path>
                <path d="M18,2.07692308 C18,3.22397602 17.0701299,4.15384615 15.9230769,4.15384615 C14.776024,4.15384615 13.8461538,3.22397602 13.8461538,2.07692308 C13.8461538,0.929870135 14.776024,2.10710207e-16 15.9230769,0 C17.0701299,7.02367357e-17 18,0.929870135 18,2.07692308 Z" id="Path"></path>
            </g>
        </g>
    </g>
</svg>