<?xml version="1.0" encoding="UTF-8"?>
<svg width="15px" height="19px" viewBox="0 0 15 19" version="1.1" xmlns="http://www.w3.org/2000/svg" xmlns:xlink="http://www.w3.org/1999/xlink">
    <!-- Generator: Sketch 52.6 (67491) - http://www.bohemiancoding.com/sketch -->
    <title>remove</title>
    <desc>Created with Sketch.</desc>
    <g id="Page-1" stroke="none" stroke-width="1" fill="none" fill-rule="evenodd">
        <g id="Image-Categories" transform="translate(-97.000000, -1579.000000)" fill="#FF2943" fill-rule="nonzero">
            <g id="Group-3" transform="translate(16.000000, 1563.000000)">
                <g id="Group-Copy" transform="translate(81.000000, 15.000000)">
                    <path d="M1.58232394,5.28893068 L0.616273535,5.28893068 C0.283152705,5.28893068 0,5.00577798 0,4.66432913 C0,4.32288028 0.283152705,4.03972757 0.616273535,4.03972757 L4.02243402,4.03972757 L4.02243402,2.84882061 C4.02243402,1.69955374 4.78028391,1 5.85459859,1 L8.91931022,1 C9.9936249,1 10.7431468,1.69955374 10.7431468,2.84882061 L10.7431468,4.03972757 L14.1742913,4.03972757 C14.5157402,4.03972757 14.7905648,4.32288028 14.7905648,4.66432913 C14.7905648,5.00577798 14.5157402,5.28893068 14.1742913,5.28893068 L13.2082409,5.28893068 L12.6835756,17.464497 C12.6336075,18.4971716 12.0173339,19.063477 10.9846594,19.063477 L3.80590548,19.063477 C2.77323091,19.063477 2.15695737,18.4971716 2.11531727,17.464497 L1.58232394,5.28893068 Z M5.15504484,2.84882061 L5.15504484,4.03972757 L9.61886396,4.03972757 L9.61886396,2.84882061 C9.61886396,2.37412342 9.27741511,2.03267457 8.76940585,2.03267457 L6.01283098,2.03267457 C5.50482171,2.03267457 5.15504484,2.37412342 5.15504484,2.84882061 Z M10.0935611,17.3645608 C10.4016979,17.3645608 10.6265545,17.1147201 10.6348825,16.7482872 L11.0096434,7.08778317 C11.0179714,6.73800629 10.7681308,6.47150963 10.451666,6.47150963 C10.1601853,6.47150963 9.91034469,6.75466234 9.90201667,7.07945515 L9.56056782,16.7399592 C9.54391178,17.0814081 9.77709636,17.3645608 10.0935611,17.3645608 Z M4.68867568,17.3645608 C5.01346849,17.3645608 5.24665307,17.0814081 5.22999703,16.7399592 L4.88854818,7.07945515 C4.88022016,6.75466234 4.63037954,6.47150963 4.33889881,6.47150963 C4.02243402,6.47150963 3.7725934,6.73800629 3.78092142,7.08778317 L4.15568235,16.7482872 C4.17233839,17.1147201 4.38886693,17.3645608 4.68867568,17.3645608 Z M7.96158783,16.7482872 L7.96991585,7.07945515 C7.96991585,6.75466234 7.70341919,6.47150963 7.39528242,6.47150963 C7.09547368,6.47150963 6.82897701,6.75466234 6.82897701,7.07945515 L6.83730503,16.7482872 C6.83730503,17.0814081 7.09547368,17.3645608 7.39528242,17.3645608 C7.69509117,17.3645608 7.96158783,17.0814081 7.96158783,16.7482872 Z" id="remove"></path>
                </g>
            </g>
        </g>
    </g>
</svg>