<?xml version="1.0" encoding="UTF-8"?>
<svg width="17px" height="17px" viewBox="0 0 17 17" version="1.1" xmlns="http://www.w3.org/2000/svg" xmlns:xlink="http://www.w3.org/1999/xlink">
    <!-- Generator: Sketch 52.6 (67491) - http://www.bohemiancoding.com/sketch -->
    <title>Search</title>
    <desc>Created with Sketch.</desc>
    <g id="Page-1" stroke="none" stroke-width="1" fill="none" fill-rule="evenodd">
        <g id="Add-Cover-Image-Copy" transform="translate(-337.000000, -298.000000)" fill="#37352F" fill-rule="nonzero">
            <g id="Nav-Bar" transform="translate(21.000000, 295.000000)">
                <path d="M323.293301,15.7666016 C319.77377,15.7666016 316.91,12.8945312 316.91,9.38330078 C316.91,5.86376953 319.77377,3 323.293301,3 C326.804531,3 329.676602,5.86376953 329.676602,9.38330078 C329.676602,10.8276367 329.186855,12.1723633 328.365078,13.2431641 L332.73959,17.6259766 C332.913906,17.8085938 332.996914,18.0493164 332.996914,18.2983398 C332.996914,18.8212891 332.615078,19.2363281 332.075527,19.2363281 C331.826504,19.2363281 331.57748,19.1450195 331.403164,18.9624023 L327.00375,14.5629883 C325.957852,15.3183594 324.67123,15.7666016 323.293301,15.7666016 Z M323.293301,14.3886719 C326.032559,14.3886719 328.298672,12.1225586 328.298672,9.38330078 C328.298672,6.63574219 326.032559,4.37792969 323.293301,4.37792969 C320.545742,4.37792969 318.28793,6.63574219 318.28793,9.38330078 C318.28793,12.1225586 320.545742,14.3886719 323.293301,14.3886719 Z" id="Search"></path>
            </g>
        </g>
    </g>
</svg>